# xmcd CD database file
#
# Track frame offsets:
#	150
#	30528
#	53479
#	66486
#	85590
#	98341
#	108166
#	117565
#	127987
#	138317
#	147042
#	160189
#	172627
#	184930
#	204111
#	217856
#	231728
#	244585
#	256375
#	266766
#	277556
#	287270
#	299401
#	312810
#	322728
#	333452
#	344520
#
# Disc length: 4738 seconds
#
# Revision: 0
# Processed by: cddbd v1.5.2PL0 Copyright (c) Steve Scherf et al.
# Submitted via: CDex 1.51
#
DISCID=7512801b
DTITLE=A - Z Sampler - The Roots of MOD CD 2
DYEAR=2011
DGENRE=mod
TTITLE0=Dave Brubeck - Blue Rondo A La Turk (1959)
TTITLE1=Ray Charles - What'd I Say (1959)
TTITLE2=Googie Rene - Caesar's Pad (1959)
TTITLE3=Nat Adderley - Work Song (1960)
TTITLE4=The Miracles - Shop Around (1960)
TTITLE5=The Isley Brothers - Respectable (1960)
TTITLE6=The Top Notes - Twist And Shout (1960)
TTITLE7=Owen Gray - Cutest Little Woman (1960)
TTITLE8=Bill Black's Combo - My Girl Josephine (1960)
TTITLE9=Ann Cole - Plain As The Nose On Your Face (1960)
TTITLE10=Eric Morris And His Drumbago All-Stars - Humpty Dumpty (1961)
TTITLE11=James Brown - I Don't Mind (1961)
TTITLE12=Bobby Parker - Watch Your Step (1961)
TTITLE13=Phil Upchurch Combo - You Can't Sit Down Part 1 and 2 (1961)
TTITLE14=Ike and Tina Turner - It's Gonna Work Out Fine (1961)
TTITLE15=Teddy Randazzo - Let The Sunshine In (1961)
TTITLE16=The Coasters - Little Egypt (1961)
TTITLE17=Bobby 'Blue' Bland - Turn On Your Love Light (1961)
TTITLE18=Don Covay - Pony Time (1961)
TTITLE19=Barbara George - I Know (You Don't Love Me No More) (1961)
TTITLE20=The Dave Clark Five - Chaquita (1961)
TTITLE21=The Shirelles - Baby It's You (1961)
TTITLE22=The Supremes - Buttered Popcorn (1961)
TTITLE23=Billy Preston - Volcano (1961)
TTITLE24=Gene Chandler - Duke Of Earl (1961)
TTITLE25=The Dukays - Nite Owl (1961) 
TTITLE26=James Booker - Gonzo (1961)
EXTD=YEAR: 2011
EXTT0=
EXTT1=
EXTT2=
EXTT3=
EXTT4=
EXTT5=
EXTT6=
EXTT7=
EXTT8=
EXTT9=
EXTT10=
EXTT11=
EXTT12=
EXTT13=
EXTT14=
EXTT15=
EXTT16=
EXTT17=
EXTT18=
EXTT19=
EXTT20=
EXTT21=
EXTT22=
EXTT23=
EXTT24=
EXTT25=
EXTT26=
PLAYORDER=
